<svg width="96" height="96" fill="none" xmlns="http://www.w3.org/2000/svg"><path fill-rule="evenodd" clip-rule="evenodd" d="M0 13.44v13.44h26.88V0H0v13.44ZM30.72 1.92v1.92h3.84v3.84h3.84v3.84h3.84V3.84h7.68V0h-7.68v3.84h-7.68V0h-3.84v1.92Zm23.04 0v1.92h3.84V0h-3.84v1.92Zm7.68 1.92v3.84H57.6v7.68h-3.84V7.68h-7.68v7.68h-3.84v3.84H38.4v-3.84h-3.84v3.84h3.84v11.52h-3.84v-7.68h-3.84v7.68h3.84v7.68h3.84v3.84h-3.84v3.84h-3.84V57.6h-3.84v-3.84h-3.84v-3.84h3.84v-3.84h-3.84v-3.84h3.84V38.4h3.84v-3.84h-3.84v-3.84h-3.84v3.84H19.2v-3.84h-7.68v3.84h7.68v3.84h3.84v3.84H19.2v3.84h-3.84v3.84H7.68v-7.68h7.68V38.4H7.68v-7.68H0v7.68h7.68v3.84H3.84v7.68H0v15.36h3.84V57.6h7.68v3.84H7.68v3.84h3.84v-3.84h3.84v3.84h15.36v3.84h3.84v-3.84h3.84v-3.84h7.68V57.6h3.84v-3.84H38.4v-7.68h3.84v3.84h7.68v-7.68h3.84V57.6h3.84v3.84h-3.84v3.84H42.24v7.68h3.84v7.68h7.68v11.52h-3.84V96h7.68v-7.68h7.68v3.84h-3.84V96h7.68v-3.84h11.52V96h3.84v-3.84h7.68V96H96V69.12h-3.84v-7.68H96v-7.68h-3.84v-3.84H96V38.4h-3.84v-3.84H96v-3.84h-3.84v3.84h-19.2v-3.84h-3.84v3.84h3.84v3.84h7.68v7.68h11.52v3.84h-3.84v3.84h-7.68v-3.84H76.8v7.68h-3.84v3.84h-3.84v-7.68h-3.84V38.4h-3.84v-7.68h3.84v-7.68h-3.84v7.68h-7.68v-3.84h3.84v-3.84h-3.84v3.84h-3.84V19.2h7.68v-3.84h3.84v3.84h3.84v-7.68h-3.84V7.68h3.84V0h-3.84v3.84Zm7.68 9.6v13.44H96V0H69.12v13.44Zm-46.08 0v9.6H3.84V3.84h19.2v9.6Zm69.12 0v9.6h-19.2V3.84h19.2v9.6Zm-84.48 0v5.76H19.2V7.68H7.68v5.76Zm69.12 0v5.76h11.52V7.68H76.8v5.76Zm-26.88 3.84v1.92h-3.84v7.68h3.84v3.84h3.84v3.84h-7.68v3.84h3.84v3.84h-3.84V38.4H38.4v-3.84h7.68v-7.68h-3.84V19.2h3.84v-3.84h3.84v1.92Zm-23.04 19.2v1.92h-3.84v-3.84h3.84v1.92Zm30.72 3.84v1.92h3.84v7.68H57.6v-7.68h-3.84V38.4h3.84v1.92Zm34.56 0v1.92h-7.68V38.4h7.68v1.92ZM23.04 48v1.92H19.2v-3.84h3.84V48Zm46.08 0v1.92h3.84v-3.84h-3.84V48Zm-46.08 7.68v1.92h3.84v3.84h-3.84V57.6H11.52v-3.84h11.52v1.92Zm15.36 3.84v1.92h-3.84v3.84h-3.84v-3.84h3.84V57.6h3.84v1.92Zm26.88 0v1.92h-3.84v11.52h-7.68v3.84h-3.84v-3.84h-3.84v-3.84h7.68v-3.84h3.84v-3.84h3.84V57.6h3.84v1.92Zm15.36 0v1.92h3.84v7.68h7.68v3.84h-3.84v11.52H76.8v3.84h-7.68v-3.84h3.84v-3.84h7.68v-19.2H76.8V57.6h3.84v1.92Zm11.52 0v1.92h-3.84V57.6h3.84v1.92ZM76.8 71.04v5.76H65.28V65.28H76.8v5.76ZM0 82.56V96h26.88V69.12H0v13.44Zm69.12-11.52v1.92h3.84v-3.84h-3.84v1.92ZM23.04 82.56v9.6H3.84v-19.2h19.2v9.6Zm-15.36 0v5.76H19.2V76.8H7.68v5.76Zm23.04-1.92v3.84h3.84v-3.84h3.84v7.68h3.84v-7.68H38.4V76.8h-7.68v3.84Zm15.36 5.76v1.92h3.84v-3.84h-3.84v1.92Zm-15.36 5.76V96h11.52v-3.84h-7.68v-3.84h-3.84v3.84Zm53.76-1.92v1.92h-3.84v-3.84h3.84v1.92Z" fill="#fff"/></svg>